<svg width="24" height="24" viewBox="0 0 24 24" fill="none" xmlns="http://www.w3.org/2000/svg">
<path d="M1.5 10V5.5C1.5 3.84315 2.84315 2.5 4.5 2.5H5.25736C6.05301 2.5 6.81607 2.81607 7.37868 3.37868L8.62132 4.62132C9.18393 5.18393 9.94699 5.5 10.7426 5.5H17.5C19.1569 5.5 20.5 6.84315 20.5 8.5M4.45 8.75L4.216 9.242C2.42783 13.0003 1.49999 17.11 1.5 21.272C1.5 21.3979 1.60208 21.5 1.728 21.5H20.372C20.4427 21.5 20.5 21.4427 20.5 21.372C20.5 17.1778 21.4422 13.0372 23.257 9.256L23.4799 8.79179C23.4931 8.76428 23.5 8.73416 23.5 8.70364C23.5 8.59117 23.4088 8.5 23.2964 8.5H4.89155C4.71067 8.5 4.54306 8.5949 4.45 8.75Z" stroke="black"/>
</svg>
