<svg width="24" height="24" viewBox="0 0 24 24" fill="none" xmlns="http://www.w3.org/2000/svg">
<path d="M3 4.5V19.4928" stroke="black" stroke-width="0.9995" stroke-linecap="round"/>
<path d="M21 9V19.5" stroke="black" stroke-width="0.9995" stroke-linecap="round" stroke-linejoin="round"/>
<path d="M6 1.5H13.5" stroke="black" stroke-width="0.9995" stroke-linecap="round" stroke-linejoin="round"/>
<path d="M6 22.5H18" stroke="black" stroke-width="0.9995" stroke-linecap="round"/>
<path d="M21 19.5C21.0082 20.9983 19.5 22.5 18 22.5" stroke="black" stroke-width="0.9995" stroke-linecap="round" stroke-linejoin="round"/>
<path d="M3 19.5C3 21 4.5 22.5 6 22.5" stroke="black" stroke-width="0.9995" stroke-linecap="round" stroke-linejoin="round"/>
<path d="M3 4.4978C3 2.99998 4.5 1.53338 6 1.49998" stroke="black" stroke-width="0.9995" stroke-linecap="round" stroke-linejoin="round"/>
<path d="M20.9918 9.00673L13.5 1.5" stroke="black" stroke-width="0.9995" stroke-linecap="round" stroke-linejoin="round"/>
<path d="M13.5 6C13.5046 7.49184 15.006 9 16.5 9" stroke="black" stroke-width="0.9995" stroke-linecap="round" stroke-linejoin="round"/>
<path d="M13.5 6V1.5" stroke="black" stroke-width="0.9995" stroke-linecap="round" stroke-linejoin="round"/>
<path d="M16.5 9H21" stroke="black" stroke-width="0.9995" stroke-linecap="round" stroke-linejoin="round"/>
<path d="M6 19.5H10.5" stroke="black" stroke-linecap="round" stroke-linejoin="round"/>
<path d="M6 16.5H13.5" stroke="black" stroke-linecap="round" stroke-linejoin="round"/>
<path d="M6 13.5H10.5" stroke="black" stroke-linecap="round" stroke-linejoin="round"/>
</svg>
