<svg width="16" height="16" viewBox="0 0 16 16" fill="none" xmlns="http://www.w3.org/2000/svg">
<path d="M5.73139 2.13337C5.61902 2.04918 5.48294 2.00262 5.34256 2.00033C5.20217 1.99804 5.06464 2.04013 4.94958 2.12061C4.83452 2.20108 4.74781 2.31583 4.70181 2.44848C4.65581 2.58114 4.65286 2.72494 4.69339 2.85937C4.80993 3.24816 4.82302 3.66063 4.73139 4.05603C4.64007 4.4491 4.44694 4.81122 4.17139 5.10603C4.15303 5.12586 4.13589 5.14679 4.12006 5.1687C3.72273 5.71337 1.48006 8.90203 3.49273 12.3434L3.51273 12.376C4.00163 13.1113 4.67127 13.7086 5.45739 14.1107C6.23405 14.5084 7.10023 14.6987 7.97206 14.6634C8.89908 14.6796 9.81453 14.4557 10.6294 14.0134C11.4584 13.5625 12.1566 12.9047 12.6561 12.104C13.5234 10.6374 13.4454 9.0667 13.0481 7.81003C12.6594 6.57803 11.9281 5.53403 11.3101 5.07537C11.213 5.00347 11.0982 4.95931 10.9779 4.94761C10.8577 4.9359 10.7365 4.9571 10.6273 5.00893C10.5182 5.06076 10.4252 5.14128 10.3583 5.24187C10.2914 5.34246 10.253 5.45934 10.2474 5.58003C10.2027 6.53403 10.0054 7.2807 9.71806 7.86737C9.57006 6.2627 8.96673 5.07003 8.23539 4.1847C7.47073 3.25803 6.52606 2.65137 6.02006 2.32603C5.92224 2.26503 5.8262 2.20123 5.73206 2.1347L5.73139 2.13337Z" fill="#257DF9"/>
</svg>
