<svg width="48" height="48" viewBox="0 0 48 48" fill="none" xmlns="http://www.w3.org/2000/svg">
<path d="M25.664 43.6021C31.916 42.3501 40 37.8521 40 26.2221C40 15.6401 32.254 8.59211 26.684 5.35411C25.446 4.63411 24 5.58011 24 7.01011V10.6661C24 13.5501 22.788 18.8141 19.42 21.0041C17.7 22.1221 15.84 20.4481 15.632 18.4081L15.46 16.7321C15.26 14.7841 13.276 13.6021 11.72 14.7901C8.922 16.9201 6 20.6601 6 26.2201C6 40.4421 16.578 44.0001 21.866 44.0001C22.1753 44.0001 22.498 43.9901 22.834 43.9701C20.222 43.7481 16 42.1281 16 36.8881C16 32.7881 18.99 30.0181 21.262 28.6681C21.874 28.3081 22.588 28.7781 22.588 29.4881V30.6681C22.588 31.5681 22.938 32.9781 23.768 33.9421C24.708 35.0341 26.086 33.8901 26.196 32.4541C26.232 32.0021 26.688 31.7141 27.08 31.9421C28.362 32.6921 30 34.2921 30 36.8881C30 40.9841 27.742 42.8681 25.664 43.6021Z" fill="#257DF9"/>
</svg>
